<svg xmlns="http://www.w3.org/2000/svg" width="212" height="185" viewBox="0 0 212 185">
    <defs>
        <linearGradient id="a" x1="100%" x2="26.768%" y1="35.255%" y2="53.443%">
            <stop offset="0%" stop-color="#7C73E3"/>
            <stop offset="100%" stop-color="#26184E"/>
        </linearGradient>
    </defs>
    <g fill="none" fill-rule="evenodd">
        <g fill="gray">
            <path d="M70 0l2.85 5H90V0zM73 18h16v-5H73zM90 28H72.806L70 33h20zM5.795 15.024h9.504c1.854 0 3.259-.443 4.219-1.32.958-.878 1.435-2.195 1.435-3.95 0-1.048-.155-1.903-.463-2.565-.308-.662-.733-1.179-1.273-1.548a4.695 4.695 0 0 0-1.856-.74 12.271 12.271 0 0 0-2.155-.186H5.795v10.309zM0 0h15.808c3.648 0 6.383.786 8.205 2.36 1.825 1.572 2.735 3.758 2.735 6.56 0 1.574-.231 2.877-.695 3.906-.463 1.033-1.003 1.864-1.622 2.498-.618.63-1.227 1.086-1.83 1.362-.604.276-1.043.464-1.323.555v.092c.495.062 1.027.217 1.6.462.572.248 1.104.641 1.599 1.18.494.537.905 1.24 1.23 2.102.325.862.487 1.938.487 3.234 0 1.943.146 3.705.44 5.29.293 1.59.75 2.723 1.366 3.399h-6.21a5.364 5.364 0 0 1-.767-2.355 28.313 28.313 0 0 1-.115-2.498c0-1.507-.093-2.81-.28-3.905-.183-1.093-.525-2.003-1.017-2.725a4.314 4.314 0 0 0-2.018-1.595c-.85-.34-1.94-.51-3.268-.51h-8.53V33H0V0zM32 33h6V0h-6zM49.825 15.624h8.526c.653 0 1.322-.093 2.004-.279a5.715 5.715 0 0 0 1.887-.9c.574-.417 1.04-.97 1.398-1.662.358-.696.538-1.567.538-2.612 0-1.08-.156-1.972-.466-2.682-.312-.71-.732-1.271-1.26-1.686a4.488 4.488 0 0 0-1.818-.855 9.874 9.874 0 0 0-2.19-.233h-8.62v10.909zM44 0h14.677c2.36 0 4.288.34 5.78 1.017 1.49.678 2.638 1.526 3.447 2.545a8.568 8.568 0 0 1 1.654 3.325c.296 1.202.442 2.312.442 3.329 0 1.017-.146 2.12-.442 3.303-.295 1.188-.845 2.288-1.654 3.305-.81 1.02-1.957 1.857-3.448 2.52-1.49.664-3.419.992-5.779.992h-8.852V33H44V0z"/>
        </g>
        <path fill="url(#a)" fill-rule="nonzero" d="M53.416 171.6a23.591 23.591 0 0 1-4.151 2.094c-1.397.534-3.314 1.029-5.751 1.486l-4.875.914c-4.57.812-7.846 1.802-9.827 2.97-3.351 1.98-5.027 5.053-5.027 9.217 0 3.707 1.028 6.386 3.085 8.036 2.057 1.65 4.558 2.476 7.503 2.476 4.672 0 8.976-1.371 12.911-4.113 3.936-2.743 5.98-7.744 6.132-15.006V171.6zm-13.178-10.131c4.012-.508 6.881-1.143 8.608-1.905 3.097-1.32 4.646-3.376 4.646-6.17 0-3.402-1.18-5.75-3.542-7.045-2.361-1.295-5.827-1.943-10.397-1.943-5.13 0-8.76 1.27-10.893 3.809-1.523 1.879-2.539 4.418-3.047 7.617H4.666c.457-7.262 2.488-13.228 6.094-17.9 5.738-7.313 15.59-10.97 29.554-10.97 9.09 0 17.164 1.804 24.223 5.41 7.059 3.605 10.588 10.41 10.588 20.413v38.086c0 2.64.05 5.84.152 9.598.153 2.844.584 4.773 1.295 5.789.711 1.015 1.778 1.853 3.2 2.513v3.2H56.157c-.66-1.676-1.117-3.25-1.37-4.723a56.937 56.937 0 0 1-.61-5.027c-2.996 3.25-6.45 6.017-10.36 8.302-4.672 2.692-9.953 4.038-15.843 4.038-7.516 0-13.724-2.146-18.624-6.437C4.45 203.833 2 197.752 2 189.881c0-10.207 3.936-17.596 11.807-22.166 4.316-2.488 10.664-4.266 19.043-5.332l7.388-.914zm76.382-29.304v10.378h.308c2.697-4.404 6.12-7.601 10.272-9.594 4.15-1.99 8.716-2.986 13.695-2.986 6.33 0 11.775 1.204 16.343 3.615 4.564 2.414 8.351 5.609 11.358 9.595 3.012 3.983 5.244 8.621 6.697 13.914 1.453 5.295 2.18 10.823 2.18 16.586 0 5.454-.727 10.694-2.18 15.728-1.453 5.031-3.658 9.488-6.618 13.364-2.955 3.877-6.64 6.977-11.048 9.276-4.41 2.307-9.572 3.464-15.485 3.464-4.98 0-9.573-1.023-13.775-3.068-4.201-2.045-7.651-5.059-10.35-9.042h-.31v11.133c0 .824-2.48 1.3-3.929-.163l-17.495-17.678a2.33 2.33 0 0 1-.675-1.645v-60.556-2.321h21.012zm28.71 64.47c2.439-1.469 4.414-3.382 5.916-5.741 1.503-2.359 2.569-5.108 3.19-8.258.623-3.143.933-6.338.933-9.59 0-3.247-.34-6.444-1.007-9.592-.678-3.145-1.793-5.947-3.35-8.413a18.754 18.754 0 0 0-5.991-5.971c-2.439-1.52-5.421-2.282-8.95-2.282-3.633 0-6.667.762-9.105 2.282a18.242 18.242 0 0 0-5.91 5.892c-1.508 2.418-2.57 5.19-3.192 8.338a50.028 50.028 0 0 0-.936 9.746c0 3.252.337 6.447 1.012 9.59.672 3.15 1.763 5.9 3.27 8.258 1.498 2.359 3.503 4.272 5.99 5.74 2.492 1.468 5.5 2.2 9.026 2.2 3.633 0 6.667-.732 9.105-2.2zm65.684-74.602H189V102h22.014v20.033zM189 131.936h22.014v83.027H189v-83.027z" transform="translate(0 -55)"/>
        <path fill="#662FA5" d="M95.595 184.826l20.15.018c1.409 0 2.114-1.633 1.119-2.586l-20.166-19.325c-.997-.956-2.698-.277-2.698 1.073l.016 19.31c.002.834.705 1.51 1.579 1.51"/>
    </g>
</svg>
