<svg width="275" height="63" viewBox="0 0 275 63" xmlns="http://www.w3.org/2000/svg"><defs><linearGradient x1="121.122%" y1="48.684%" x2="3.803%" y2="50.905%" id="a"><stop stop-color="#FFF" offset="0%"/><stop stop-color="#E0E4FE" offset="13%"/><stop stop-color="#BDC4FC" offset="30%"/><stop stop-color="#A1ACFB" offset="47%"/><stop stop-color="#8D9AFA" offset="65%"/><stop stop-color="#8190F9" offset="82%"/><stop stop-color="#7D8CF9" offset="100%"/></linearGradient><linearGradient x1="-111.575%" y1="49.979%" x2="209.98%" y2="49.979%" id="b"><stop stop-color="#6051F2" offset="0%"/><stop stop-color="#6963F4" offset="34%"/><stop stop-color="#7D8CF9" offset="95%"/></linearGradient></defs><g fill="none"><path d="M80.47 48.133l-9.05-16.729h-7.823v16.73H53.95V1.617h19.917c4.521 0 8.152 1.315 10.894 3.946 2.74 2.632 4.111 6.29 4.111 10.978a16.144 16.144 0 01-1.958 8.178 12.667 12.667 0 01-5.518 5.129l9.915 18.284H80.47zM63.562 22.89h9.132a6.475 6.475 0 004.636-1.68 6.12 6.12 0 001.78-4.667 6.289 6.289 0 00-1.78-4.79 6.475 6.475 0 00-4.636-1.68h-9.15l.018 12.817zM99.837 0a5.28 5.28 0 013.889 1.582 5.33 5.33 0 011.593 3.894 5.206 5.206 0 01-1.593 3.822 5.28 5.28 0 01-3.89 1.582 5.192 5.192 0 01-3.862-1.582 5.277 5.277 0 01-1.557-3.822 5.268 5.268 0 011.62-3.858A5.218 5.218 0 0199.836 0zm4.547 48.133H95.29V16h9.095v32.133zm24.661-32.773a14.73 14.73 0 0111.24 4.604c2.884 3.064 4.326 7.106 4.326 12.125 0 5.02-1.442 9.06-4.325 12.124a14.73 14.73 0 01-11.24 4.605c-3.946 0-6.954-1.141-9.025-3.422V64h-9.104V16h8.597v3.36c1.993-2.673 5.17-4.006 9.531-4zm-1.441 7.751a7.213 7.213 0 00-5.51 2.205 8.403 8.403 0 00-2.082 6v1.493a8.376 8.376 0 002.083 6 7.945 7.945 0 0011.142-.151 9.468 9.468 0 002.154-6.596 9.468 9.468 0 00-2.154-6.595 7.258 7.258 0 00-5.633-2.356zm52.988 11.84h-22.107a6.822 6.822 0 001.905 4.791 6.6 6.6 0 004.824 1.734c3.24 0 5.209-1.186 5.909-3.556l9.158.436a11.626 11.626 0 01-5.01 7.52 16.586 16.586 0 01-9.79 2.924c-4.984 0-9.001-1.514-12.05-4.542-3.05-3.028-4.58-7.085-4.593-12.17 0-5.137 1.513-9.211 4.539-12.221s6.971-4.513 11.837-4.507c4.693 0 8.428 1.42 11.204 4.258 2.777 2.838 4.168 6.746 4.174 11.724v3.61zm-15.44-12.498a6.466 6.466 0 00-4.7 1.707 6.92 6.92 0 00-1.967 4.756h12.95a7.16 7.16 0 00-1.71-4.756 5.94 5.94 0 00-4.574-1.707zm61.015 25.68h-4.049l-5.482-13.466h-22.534l-5.545 13.493h-4.04l19.232-46.542h3.177l19.241 46.515zM195.41 31.53h19.864L205.37 7.28l-9.959 24.249zm36.791-29.912h17.248a14.25 14.25 0 019.968 3.555c2.67 2.303 3.978 5.654 3.978 10.071 0 4.418-1.3 7.778-3.978 10.134a14.517 14.517 0 01-9.968 3.484h-13.608v19.271h-3.675l.035-46.515zm3.64 3.235v20.765h13.172c5.98 0 10.59-3.662 10.59-10.382s-4.547-10.383-10.59-10.383H235.84zm38.643 43.28h-3.676V1.618h3.676z" fill="#22283F"/><path d="M32.252 44.107H3.248A3.256 3.256 0 010 40.889V4.178A3.252 3.252 0 013.248.888h24.813c9.905.063 8.579 3.84 8.579 8.579v30.222a4.38 4.38 0 01-1.272 3.122 4.39 4.39 0 01-3.116 1.296z" fill="url(#a)" opacity=".83"/><path d="M33.436 45.529L13.981 54.15a2.53 2.53 0 01-2.41-.188 2.524 2.524 0 01-1.15-2.123V15.156a4.01 4.01 0 012.386-3.663l19.962-8.826a2.762 2.762 0 012.606.204 2.756 2.756 0 011.265 2.285v35.448c0 2.13-1.255 4.06-3.204 4.925z" fill="url(#b)"/></g></svg>